<svg xmlns="http://www.w3.org/2000/svg" width="32" height="32" viewBox="0 0 32 32">
  <!-- Gradient background -->
  <defs>
    <linearGradient id="gradient" x1="0%" y1="0%" x2="100%" y2="100%">
      <stop offset="0%" stop-color="#6366f1" />
      <stop offset="100%" stop-color="#8b5cf6" />
    </linearGradient>
  </defs>
  
  <!-- Rounded square background -->
  <rect width="32" height="32" rx="8" fill="url(#gradient)" />
  
  <!-- Stylized S -->
  <path d="M20.5,10c0-2.2-1.8-4-4-4h-5c-0.6,0-1,0.4-1,1v2c0,0.6,0.4,1,1,1h5c0.6,0,1,0.4,1,1s-0.4,1-1,1h-5
           c-2.2,0-4,1.8-4,4s1.8,4,4,4h5c0.6,0,1-0.4,1-1v-2c0-0.6-0.4-1-1-1h-5c-0.6,0-1-0.4-1-1s0.4-1,1-1h5
           C18.7,14,20.5,12.2,20.5,10z" fill="white" />
  
  <!-- Subtle glow effect -->
  <circle cx="16" cy="16" r="14" fill="none" stroke="rgba(255,255,255,0.2)" stroke-width="1" />
</svg>
